<svg width="1231" height="314" viewBox="0 0 1231 314" fill="none" xmlns="http://www.w3.org/2000/svg">
<path d="M615.666 9.54166C534.359 9.54166 468.208 75.6927 468.208 157C468.208 238.312 534.359 304.458 615.666 304.458C696.973 304.458 763.124 238.312 763.124 157C763.124 75.6927 696.973 9.54166 615.666 9.54166ZM615.666 313.411C529.421 313.411 459.254 243.245 459.254 157C459.254 70.7552 529.421 0.588531 615.666 0.588531C701.911 0.588531 772.077 70.7552 772.077 157C772.077 243.245 701.911 313.411 615.666 313.411Z" fill="black"/>
<path d="M652.239 72.9844C652.239 99.875 630.442 121.672 603.556 121.672C576.671 121.672 554.874 99.875 554.874 72.9844C554.874 46.099 576.671 24.3021 603.556 24.3021C630.442 24.3021 652.239 46.099 652.239 72.9844Z" fill="black"/>
<path d="M583.556 144.516C583.556 171.401 561.765 193.198 534.874 193.198C507.989 193.198 486.192 171.401 486.192 144.516C486.192 117.63 507.989 95.8281 534.874 95.8281C561.765 95.8281 583.556 117.63 583.556 144.516Z" fill="black"/>
<path d="M624.588 234.115C624.588 261 602.791 282.797 575.9 282.797C549.015 282.797 527.218 261 527.218 234.115C527.218 207.229 549.015 185.432 575.9 185.432C602.791 185.432 624.588 207.229 624.588 234.115ZM721.952 217.656C721.952 244.547 700.156 266.344 673.27 266.344C646.385 266.344 624.588 244.547 624.588 217.656C624.588 190.771 646.385 168.974 673.27 168.974C700.156 168.974 721.952 190.771 721.952 217.656ZM739.968 120.292C739.968 147.177 718.171 168.974 691.281 168.974C664.395 168.974 642.598 147.177 642.598 120.292C642.598 93.4063 664.395 71.6094 691.281 71.6094C718.171 71.6094 739.968 93.4063 739.968 120.292ZM620.676 139.057C627.249 135.604 634.937 141.188 633.682 148.505C633.182 151.411 634.145 154.38 636.26 156.438C641.577 161.625 638.64 170.656 631.291 171.724C628.374 172.151 625.848 173.984 624.546 176.63C621.255 183.292 611.76 183.292 608.468 176.63C607.166 173.984 604.64 172.151 601.723 171.724C594.369 170.656 591.437 161.625 596.755 156.438C598.869 154.38 599.833 151.411 599.333 148.505C598.077 141.188 605.76 135.604 612.338 139.057C614.947 140.432 618.067 140.432 620.676 139.057ZM222.333 96.401C204.244 103.635 193.426 125.24 190.848 147.599C200.958 149.911 207.192 153.057 207.192 156.536C207.192 160.021 200.921 163.182 190.755 165.49C193.145 188.172 203.994 210.266 222.333 217.599C242.708 225.948 268.708 199.177 268.76 157C268.708 114.823 242.708 88.0521 222.333 96.401ZM149.416 46.2812C107.239 46.3281 80.4681 72.3281 88.8119 92.7083C95.9212 110.469 116.885 121.214 138.812 124.036C141.119 108.776 145.005 98.7552 149.416 98.7552C153.822 98.7552 157.708 108.776 160.015 124.036C181.947 121.214 202.911 110.469 210.015 92.7083C218.359 72.3281 191.593 46.3281 149.416 46.2812ZM210.015 221.292C202.895 203.49 181.854 192.74 159.874 189.943C157.551 204.688 153.734 214.313 149.416 214.313C145.093 214.313 141.275 204.688 138.952 189.943C116.973 192.74 95.9369 203.49 88.8119 221.292C80.4681 241.672 107.234 267.672 149.416 267.724C191.593 267.672 218.359 241.672 210.015 221.292ZM91.6348 156.536C91.6348 153.057 97.8691 149.911 107.979 147.599C105.4 125.24 94.5879 103.635 76.4994 96.401C56.1243 88.0521 30.1191 114.823 30.0723 157C30.1191 199.177 56.1243 225.948 76.4994 217.599C94.8327 210.266 105.687 188.172 108.077 165.49C97.9056 163.182 91.6348 160.021 91.6348 156.536Z" fill="black"/>
<path d="M149.416 134.719H178.848C182.358 134.719 184.556 138.526 182.801 141.568L168.082 167.057L153.369 192.542C151.608 195.589 147.218 195.589 145.457 192.542L130.744 167.057L116.03 141.568C114.27 138.526 116.468 134.719 119.983 134.719H149.416Z" fill="black"/>
<path d="M149.416 30.6458C72.1556 30.6458 9.30143 87.3281 9.30143 157C9.30143 226.672 72.1556 283.354 149.416 283.354C226.671 283.354 289.525 226.672 289.525 157C289.525 87.3281 226.671 30.6458 149.416 30.6458ZM149.416 291.979C67.4004 291.979 0.681641 231.427 0.681641 157C0.681641 82.5729 67.4004 22.0208 149.416 22.0208C231.426 22.0208 298.15 82.5729 298.15 157C298.15 231.427 231.426 291.979 149.416 291.979ZM1073.36 164.26C1073.95 159.734 1077.95 156.068 1082.31 156.068C1086.66 156.068 1090.67 159.734 1091.25 164.26C1091.84 168.781 1087.84 172.448 1082.31 172.448C1076.78 172.448 1072.78 168.781 1073.36 164.26Z" fill="black"/>
<path d="M1091.82 149.234C1091.24 153.755 1087.23 157.422 1082.88 157.422C1078.53 157.422 1074.52 153.755 1073.93 149.234C1073.34 144.708 1077.35 141.042 1082.88 141.042C1088.41 141.042 1092.41 144.708 1091.82 149.234Z" fill="black"/>
<path d="M1075.08 147.516C1079.6 148.099 1083.27 152.109 1083.27 156.464C1083.27 160.818 1079.6 164.823 1075.08 165.406C1070.56 165.995 1066.89 161.99 1066.89 156.464C1066.89 150.932 1070.56 146.927 1075.08 147.516Z" fill="black"/>
<path d="M1090.11 165.979C1085.58 165.391 1081.92 161.385 1081.92 157.031C1081.92 152.677 1085.58 148.672 1090.11 148.083C1094.63 147.495 1098.3 151.505 1098.3 157.031C1098.3 162.557 1094.63 166.563 1090.11 165.979ZM1098.27 129.526C1101.88 126.74 1107.31 126.984 1110.39 130.063C1113.47 133.141 1113.71 138.563 1110.93 142.177C1108.14 145.792 1102.72 145.552 1098.81 141.641C1094.9 137.734 1094.66 132.307 1098.27 129.526ZM1067.53 184.354C1063.92 187.135 1058.49 186.896 1055.42 183.818C1052.33 180.74 1052.09 175.313 1054.88 171.698C1057.66 168.089 1063.09 168.328 1066.99 172.234C1070.91 176.146 1071.14 181.568 1067.53 184.354ZM1109.17 171.229C1111.95 174.844 1111.71 180.271 1108.63 183.349C1105.56 186.427 1100.13 186.667 1096.52 183.885C1092.91 181.099 1093.14 175.677 1097.06 171.766C1100.96 167.859 1106.39 167.62 1109.17 171.229ZM1054.95 141.099C1052.17 137.484 1052.41 132.063 1055.49 128.979C1058.57 125.901 1063.99 125.661 1067.61 128.448C1071.22 131.229 1070.98 136.651 1067.07 140.563C1063.16 144.474 1057.73 144.714 1054.95 141.099Z" fill="black"/>
<path d="M1167.98 73.5C1180.7 86.625 1186.98 101.943 1183.85 120.505C1180.54 140.125 1161.52 153.333 1142.5 151.729C1133.19 150.943 1124.58 148.125 1116.39 143.75C1113.95 142.448 1112.87 141.365 1114.56 138.458C1116.83 134.536 1115.85 130.672 1112.78 127.422C1109.73 124.203 1106.2 123.474 1102.25 125.734C1098.78 127.724 1097.36 124.875 1096.38 122.755C1090.57 110.187 1087.73 97.0885 1091.65 83.4218C1094.08 74.9479 1099.68 68.375 1106.92 63.5989C1120.51 54.625 1134.85 54.6146 1149.54 60.9843C1156.49 64 1162.95 67.6406 1167.98 73.5ZM1167.69 241.411C1155.9 252.292 1144.57 258.224 1130.86 259.208C1111.4 260.604 1093.47 247.604 1088.95 229.542C1085.4 215.292 1089.43 202.333 1096.55 190.031C1097.69 188.062 1099.08 187.964 1100.83 189.005C1104.88 191.432 1109.04 190.458 1112.01 187.729C1114.71 185.25 1115.62 181.37 1114.01 177.448C1113.2 175.479 1113.05 173.536 1115.4 172.276C1130.44 164.224 1145.92 161.349 1161.85 169.312C1176.59 176.682 1184.86 192.75 1182.93 209.703C1181.38 223.307 1174.4 233.495 1167.69 241.411ZM992.676 136.917C984.416 127.531 980.713 115.531 983.067 102.203C987.64 76.2968 1005.18 59.401 1030.58 55.2656C1051.84 51.8073 1071.92 64.1041 1076.54 86.0364C1078.53 95.526 1077.29 104.917 1073.28 113.797C1071.8 117.062 1070.81 120.542 1068.73 123.552C1067.58 125.208 1066.86 126.042 1064.67 124.755C1060.97 122.599 1055.21 123.135 1052.99 125.849C1050.34 129.104 1049.14 132.979 1051.1 137.062C1052.13 139.203 1051.87 140.578 1049.78 141.641C1038.36 147.427 1026.44 150.505 1013.58 147.979C1005.94 146.474 999.077 143.339 992.676 136.917ZM1063.95 245.823C1053.75 255.74 1041.31 258.339 1027.76 256.047C1009.91 253.026 996.473 242.849 987.911 227.365C979.681 212.49 978.119 196.224 986.28 180.724C993.124 167.74 1007.93 160.698 1022.85 161.964C1031.8 162.724 1039.91 165.385 1047.71 169.552C1050.13 170.844 1051.2 171.932 1050.24 175.182C1047.98 182.885 1051.42 188.25 1058.43 189.12C1059.28 189.224 1060.41 189.568 1060.97 189.172C1065.96 185.708 1067.37 189.687 1069.06 192.979C1076.24 207.062 1077.13 221.542 1071.18 236.203C1069.69 239.88 1067.04 243.089 1063.95 245.823Z" fill="black"/>
<path d="M1081.92 30.6458C1004.66 30.6458 941.806 87.3281 941.806 157C941.806 226.672 1004.66 283.354 1081.92 283.354C1159.18 283.354 1222.03 226.672 1222.03 157C1222.03 87.3281 1159.18 30.6458 1081.92 30.6458ZM1081.92 291.979C999.905 291.979 933.181 231.427 933.181 157C933.181 82.5729 999.905 22.0208 1081.92 22.0208C1163.93 22.0208 1230.65 82.5729 1230.65 157C1230.65 231.427 1163.93 291.979 1081.92 291.979Z" fill="black"/>
</svg>
