<svg width="699" height="718" viewBox="0 0 699 718" fill="none" xmlns="http://www.w3.org/2000/svg">
<path d="M330.989 0.458313C408.02 1.63019 478.072 24.3646 541.426 70.375C590.921 106.328 629.181 152.057 657.687 206.375C678.457 245.943 690.796 288.745 695.853 333.62C699.353 364.661 699.457 395.505 694.838 426.568C691.15 451.328 685.567 475.354 677.192 498.828C663.489 537.219 643.306 571.552 617.384 602.438C589.155 636.063 555.52 662.802 516.973 682.224C488.499 696.578 458.483 706.568 426.723 712.214C395.811 717.708 365.145 718.958 334.311 716.177C300.541 713.125 267.608 704.875 236.202 691.563C199.9 676.167 166.082 656.26 136.098 629.755C103.291 600.76 74.7073 568.224 53.5511 529.109C38.9677 502.151 26.5354 474.271 17.8271 444.687C17.1917 442.531 14.8271 440.031 18.3427 438.995C21.5198 438.052 21.5354 441.24 22.1292 443.562C36.6604 499.969 65.5771 548.542 103.275 590.88C142.046 634.432 188.978 666.979 243.254 687.948C280.426 702.313 318.713 710.51 358.145 711.266C414.765 712.344 468.509 700.063 519.155 672.604C546.004 658.047 570.489 640.505 592.244 619.354C624.082 588.401 648.275 551.365 665.296 509.755C685.364 460.729 694.431 409.328 690.895 356.292C687.697 308.245 675.812 262.469 655.056 218.693C635.91 178.312 611.416 142.62 580.129 111.755C543.067 75.1771 500.358 47.8281 451.957 29.776C412.801 15.1719 372.509 7.31248 330.978 8.41144C237.374 10.8906 156.864 44.6458 92.7698 116.557C63.8011 149.057 43.5667 186.573 28.5927 227.818C16.6865 260.615 11.9834 294.521 8.56148 328.865C7.68648 337.615 8.46252 346.427 10.0875 355.141C10.8948 359.484 11.2906 365.75 6.48856 366.302C1.05106 366.932 1.64481 360.687 1.31147 356.365C-0.131233 337.911 2.8896 319.646 4.15522 301.38C6.12397 272.995 12.9052 245.255 22.8427 218.719C42.6656 165.781 72.7125 119.703 114.853 82.8333C153.384 49.125 196.905 25.0937 246.364 12.1927C274.275 4.90623 302.114 -0.270853 330.989 0.458313Z" fill="#221F1F"/>
<path d="M17.7861 390.641C16.7861 395.937 13.7652 398.526 9.71835 398.411C5.51002 398.297 2.90585 395.411 3.15064 390.609C3.3746 386.25 4.84335 382.531 9.66106 382.823C14.4267 383.12 16.4788 387.031 17.7861 390.641Z" fill="#221F1F"/>
</svg>
